<?xml version="1.0" encoding="UTF-8" standalone="no"?>
<!-- Created with Inkscape (http://www.inkscape.org/) -->

<svg
   width="132.29167mm"
   height="35.993061mm"
   viewBox="0 0 132.29167 35.993061"
   version="1.1"
   id="svg5"
   xml:space="preserve"
   inkscape:version="1.2.1 (9c6d41e410, 2022-07-14)"
   sodipodi:docname="logo.svg"
   xmlns:inkscape="http://www.inkscape.org/namespaces/inkscape"
   xmlns:sodipodi="http://sodipodi.sourceforge.net/DTD/sodipodi-0.dtd"
   xmlns="http://www.w3.org/2000/svg"
   xmlns:svg="http://www.w3.org/2000/svg"><sodipodi:namedview
     id="namedview7"
     pagecolor="#ffffff"
     bordercolor="#000000"
     borderopacity="0.25"
     inkscape:showpageshadow="2"
     inkscape:pageopacity="0.0"
     inkscape:pagecheckerboard="0"
     inkscape:deskcolor="#d1d1d1"
     inkscape:document-units="mm"
     showgrid="false"
     inkscape:zoom="1.0066639"
     inkscape:cx="384.43816"
     inkscape:cy="-1.9867605"
     inkscape:window-width="1366"
     inkscape:window-height="745"
     inkscape:window-x="-8"
     inkscape:window-y="-8"
     inkscape:window-maximized="1"
     inkscape:current-layer="layer1" /><defs
     id="defs2" /><g
     inkscape:label="Layer 1"
     inkscape:groupmode="layer"
     id="layer1"
     transform="translate(19.148914,-147.44745)"><g
       id="g11070"
       transform="matrix(0.51480651,0,0,0.51480651,-9.2909283,71.540543)"><path
         id="path194-7"
         style="fill:#29166f;fill-opacity:1;stroke-width:0.0846667"
         d="m 9.0408452,147.45205 c -0.1286288,-0.0429 -2.436231,0.22448 -3.2618164,0.37775 -3.1379198,0.58256 -6.7856081,1.71336 -10.2019613,3.1626 -1.451565,0.61577 -4.1662357,1.94084 -5.1226847,2.50062 -0.3725332,0.21803 -0.8105998,0.47224 -0.9735838,0.56534 -0.594605,0.33969 -2.261739,1.46893 -2.963127,2.0066 -3.087334,2.36668 -5.060788,4.73324 -5.545398,6.65127 -0.16138,0.63873 -0.161615,1.94307 -5.17e-4,2.71301 0.60078,2.87137 3.460101,4.88767 8.805665,6.21048 1.1572289,0.28637 2.1240582,0.48736 5.5810542,1.15962 2.6486158,0.51506 3.9799736,0.86347 6.1345093,1.60507 7.7229876,2.65826 11.6245345,6.64368 12.4240475,12.69018 0.184172,1.39284 0.119679,4.14263 -0.132291,5.63118 -0.763435,4.51004 -3.646716,12.00863 -8.5157596,22.14852 -0.8339334,1.73669 -1.1404989,2.40302 -1.1404989,2.47582 0,0.0321 0.054393,0.003 0.1209229,-0.0656 0.1569026,-0.16082 32.4010736,-56.37598 32.4584836,-56.5888 0.04928,-0.18266 -1.824624,0.75964 -7.84965,3.94653 -2.44756,1.29463 -7.107369,2.96782 -10.887191,3.90932 -2.69615,0.67157 -6.968005,1.3008 -10.9641882,1.61541 -14.3239234,1.12769 -23.2237668,-1.34752 -23.9633948,-6.66523 -0.22054,-1.58568 0.557764,-3.41696 2.144572,-5.04723 2.264894,-2.32697 5.4536756,-4.35741 10.254154,-6.52932 3.4558622,-1.56356 8.1720978,-3.20122 10.5910848,-3.6773 0.9709922,-0.1911 3.1176602,-0.75911 3.0075684,-0.79581 z M 135.56491,160.1567 c -1.01443,0.007 -2.55451,0.22506 -3.97082,0.58446 -3.66316,0.92956 -8.7624,3.30666 -13.16561,6.13761 -2.30141,1.47964 -3.80047,2.66501 -5.95829,4.71185 -4.00148,3.79574 -6.56026,7.3765 -9.48728,13.2762 l -1.11672,2.25102 -3.257685,-8.26203 -3.258199,-8.26202 -1.860869,-0.0227 c -1.023364,-0.0125 -2.170122,0.007 -2.548681,0.0424 l -0.68833,0.0651 5.351611,12.65762 c 2.943303,6.9617 5.434843,12.81819 5.536613,13.01419 0.10177,0.19599 0.28942,0.4527 0.41703,0.57103 0.30861,0.28617 0.55184,0.27206 0.82165,-0.0486 0.339,-0.40287 0.42395,-0.60694 0.89452,-2.15439 1.10142,-3.62188 2.77701,-7.5797 4.33514,-10.23917 2.28412,-3.89859 4.2144,-6.60387 7.00009,-9.81025 4.13107,-4.75495 11.73841,-10.20684 17.91622,-12.83953 1.25754,-0.53591 2.51988,-0.9951 3.46594,-1.26142 l 0.84129,-0.23668 -0.45269,-0.10852 c -0.19719,-0.0473 -0.4768,-0.0684 -0.81493,-0.0661 z m -80.975424,1.58956 v 17.39894 17.39894 h 2.159041 2.159042 V 179.1452 161.74626 h -2.159042 z m 132.969144,7.39852 -0.39739,0.42891 c -0.21865,0.2358 -0.714,0.84363 -1.10071,1.35083 -0.38672,0.50721 -0.76474,0.96079 -0.83974,1.00769 -0.10205,0.0638 -0.49123,-0.0465 -1.54719,-0.43822 -1.96045,-0.72721 -2.65299,-0.88425 -3.90416,-0.88522 -3.70797,-0.003 -7.23949,2.18392 -8.9302,5.53041 -0.70367,1.39283 -0.97687,2.68894 -0.91157,4.32739 0.0533,1.33736 0.24124,2.12498 0.77618,3.25768 0.71785,1.52004 1.94542,3.01568 3.44475,4.19664 0.48226,0.37985 0.64162,0.55149 0.58032,0.62529 -0.0814,0.0981 -0.45031,0.28801 -2.05517,1.05833 -1.19323,0.57275 -1.79899,1.31034 -2.00349,2.4381 -0.26213,1.44554 0.64562,3.04631 2.14457,3.78219 1.5255,0.74892 3.07651,0.82018 5.8539,0.26872 2.20741,-0.43826 2.81303,-0.50917 3.92586,-0.45837 1.47169,0.0672 2.46569,0.41555 3.23133,1.13172 1.396,1.30578 0.90892,3.40198 -1.09709,4.72219 -1.20889,0.79559 -2.36242,1.09412 -4.24005,1.09812 -2.24279,0.005 -3.54738,-0.35406 -6.17947,-1.70015 l -1.73426,-0.88677 -0.28009,0.32505 c -0.48796,0.56663 -1.12011,1.43443 -1.63762,2.2474 l -0.50126,0.78704 0.4594,0.43304 c 1.53244,1.44563 4.56111,2.48484 7.71426,2.64635 4.59823,0.23552 8.65911,-0.9152 10.79727,-3.05924 1.28572,-1.28926 1.78704,-2.53221 1.80144,-4.46536 0.0105,-1.41206 -0.23511,-2.52846 -0.81029,-3.68298 -0.7246,-1.45452 -2.00905,-2.446 -3.70778,-2.86288 -1.43035,-0.351 -2.83347,-0.36358 -6.04821,-0.0543 -3.44653,0.33162 -4.65481,0.30342 -5.60948,-0.13074 -0.4307,-0.1959 -0.44441,-0.21291 -0.44441,-0.54828 0,-0.40225 0.18565,-0.89213 0.44131,-1.16427 0.2081,-0.22152 0.87373,-0.48538 1.42111,-0.56328 0.20955,-0.0298 1.23311,-0.10966 2.27428,-0.17776 2.97079,-0.19428 4.23949,-0.46573 5.89628,-1.26194 1.94557,-0.93499 3.22425,-2.18855 4.19354,-4.11086 0.71977,-1.42744 1.01337,-2.68157 1.01337,-4.32687 0,-1.69998 -0.24905,-2.59152 -1.26969,-4.54288 l -0.58446,-1.11776 0.43357,-0.39015 c 0.23868,-0.2146 0.85815,-0.73122 1.37614,-1.14774 l 0.94155,-0.75706 -1.44333,-1.46502 z m -109.539049,1.00769 c -2.146124,0.10596 -4.027418,0.99827 -5.998601,2.82102 -0.472954,0.43734 -0.883022,0.79464 -0.911572,0.79375 -0.02856,-8.8e-4 -0.326128,-0.63942 -0.660942,-1.41852 l -0.608748,-1.41645 -1.515153,-0.0227 -1.515153,-0.0232 -0.05633,5.09581 c -0.03093,2.80269 -0.05633,8.55694 -0.05633,12.78681 v 7.69049 h 2.286166 2.286165 l 5.17e-4,-9.41906 0.001,-9.41907 0.199472,-0.42891 c 0.532848,-1.14432 1.99306,-2.12381 3.929992,-2.63653 0.688391,-0.1822 1.021071,-0.21938 2.049487,-0.22738 1.066358,-0.008 1.311375,0.0166 1.862936,0.18862 1.560919,0.48677 2.475823,1.42149 2.717663,2.77554 0.04893,0.27394 0.127517,0.61219 0.174667,0.75189 0.395978,1.17316 0.447961,2.4743 0.429431,10.78023 l -0.01705,7.47861 1.967322,-0.0537 c 1.081816,-0.0295 2.048479,-0.0701 2.148189,-0.0904 0.174358,-0.0355 0.183818,-0.0978 0.252698,-1.62522 0.118772,-2.63382 0.0915,-13.75366 -0.03721,-15.17737 -0.218178,-2.41328 -0.493901,-3.83684 -0.906922,-4.68034 -0.370601,-0.75685 -1.255648,-1.87271 -1.9389,-2.44429 -1.568022,-1.31177 -3.216068,-1.97668 -5.145939,-2.07688 -0.318439,-0.0165 -0.630305,-0.0177 -0.936893,-0.003 z m 77.699129,0.0207 c -1.12411,0.008 -2.24181,0.20689 -3.22719,0.59583 -1.40942,0.55631 -2.50676,1.38448 -3.21531,2.42621 l -0.44338,0.65164 -0.22169,-0.26407 c -0.25428,-0.3022 -0.66088,-1.08648 -1.05524,-2.03657 l -0.27233,-0.65629 h -1.55804 -1.55857 v 12.7 12.7 l 1.50275,5.2e-4 c 0.82655,3e-4 1.8077,0.0242 2.18023,0.0532 l 0.67748,0.0532 v -8.71058 c 0,-8.9169 0.0323,-9.93877 0.3328,-10.51977 0.0634,-0.12263 0.33825,-0.43459 0.61081,-0.6935 1.3814,-1.3122 3.2085,-2.07472 5.19452,-2.16782 2.21827,-0.10394 3.82743,0.72149 4.59972,2.36006 0.50783,1.07746 0.62358,1.82957 0.73639,4.77594 0.0765,1.99836 0.0534,4.04499 -0.14005,12.49949 l -0.0574,2.51871 h 2.28927 2.28875 l 0.0739,-3.19619 c 0.10813,-4.71169 0.0856,-11.47954 -0.0439,-13.22916 -0.12054,-1.62789 -0.34867,-3.32794 -0.56534,-4.21267 -0.52734,-2.15326 -2.50334,-4.22469 -4.86379,-5.09943 -1.01021,-0.37437 -2.14028,-0.55701 -3.2644,-0.5488 z m 50.29978,0.0837 c -0.81245,7.3e-4 -1.61428,0.0679 -2.24069,0.20102 -1.01319,0.2154 -2.13705,0.62831 -3.05356,1.12189 -2.45221,1.32058 -4.55933,3.79367 -5.76709,6.76858 -1.49962,3.69375 -1.55644,7.7058 -0.15865,11.19053 0.41349,1.03086 0.85187,1.78598 1.66036,2.85926 1.8553,2.46294 4.75247,4.03731 8.32921,4.52634 1.08859,0.14922 3.14897,0.15111 4.23333,0.004 1.90437,-0.25813 3.69125,-0.88705 5.00125,-1.76061 0.73735,-0.4917 1.09502,-0.7726 1.09502,-0.8599 0,-0.0276 -0.40245,-0.82906 -0.894,-1.78077 l -0.89349,-1.73013 -0.43976,0.2589 c -0.24187,0.14251 -0.72562,0.45162 -1.07487,0.68678 -1.86411,1.25511 -4.29184,1.76662 -6.52932,1.37563 -3.93455,-0.68755 -6.67866,-4.12956 -6.67866,-8.37727 v -0.61495 l 6.28644,-0.0563 c 3.45755,-0.031 7.64551,-0.0563 9.30641,-0.0563 h 3.01997 l 0.0847,-0.40204 c 0.33821,-1.59867 0.34594,-3.77923 0.0181,-5.1015 -1.05023,-4.23566 -4.27863,-7.12588 -8.99945,-8.05636 -0.66945,-0.13209 -1.49284,-0.19761 -2.30528,-0.19688 z m -77.28831,0.0537 c -0.85061,-0.0301 -1.7113,0.004 -2.35283,0.11007 -1.84659,0.30631 -3.84028,1.13645 -5.24929,2.1854 -2.43703,1.81425 -4.14082,4.49332 -5.03018,7.91063 -0.6676,2.5652 -0.60276,5.53718 0.17311,7.94835 0.31161,0.96839 1.12774,2.59035 1.71928,3.41684 0.68602,0.95849 1.9366,2.21756 2.83807,2.85719 1.83282,1.30047 4.04249,2.13205 6.36292,2.39521 0.89411,0.1014 2.93896,0.0381 3.90312,-0.12093 1.48024,-0.2442 2.33882,-0.60004 5.2834,-2.19004 0.54462,-0.29409 0.71239,-0.42572 0.69039,-0.54054 -0.0507,-0.26447 -0.56385,-1.30929 -1.03766,-2.11357 -0.25162,-0.42712 -0.53374,-0.91228 -0.62684,-1.07797 l -0.16898,-0.30127 -0.8046,0.47232 c -2.55214,1.49887 -4.10311,2.02397 -5.96863,2.01797 -1.47995,-0.004 -2.822,-0.39635 -4.19044,-1.22318 -2.12263,-1.28251 -3.4419,-3.64292 -3.74034,-6.69262 -0.0535,-0.54487 -0.0752,-1.04733 -0.0486,-1.11673 0.0424,-0.11044 1.20417,-0.13118 9.29194,-0.16588 7.4961,-0.0321 9.25598,-0.0609 9.31158,-0.15089 0.14985,-0.24242 0.27808,-2.03725 0.23358,-3.2675 -0.0634,-1.7538 -0.391,-3.1397 -1.05937,-4.4819 -1.41548,-2.84257 -3.89397,-4.75875 -7.2378,-5.59604 -0.60082,-0.15045 -1.44124,-0.24477 -2.29185,-0.27492 z m 105.22769,0.16898 c -1.18741,0.0171 -1.65517,0.135 -2.53887,0.48886 -1.19418,0.47816 -2.20493,1.27721 -3.05976,2.41949 -0.17425,0.23283 -0.52934,0.68677 -0.7891,1.00924 l -0.47232,0.58653 -0.0662,-1.93683 c -0.0365,-1.06529 -0.0758,-1.94652 -0.0873,-1.95802 -0.0115,-0.0115 -0.94389,-0.0319 -2.07171,-0.046 l -2.05052,-0.0258 v 12.59716 12.59716 l 2.05362,-0.0568 c 1.12925,-0.0313 2.06983,-0.0719 2.09083,-0.0904 0.0462,-0.0407 0.0567,-5.78048 0.0202,-11.33471 -0.0223,-3.40905 -0.007,-4.12227 0.0971,-4.40283 0.0681,-0.18413 0.26005,-0.71099 0.42684,-1.17048 0.76878,-2.11775 1.91792,-3.55839 3.44992,-4.32531 1.4373,-0.71949 3.03017,-0.71526 4.6638,0.0124 0.4066,0.1811 0.50043,0.19714 0.59273,0.0997 0.20293,-0.21399 0.58335,-0.99865 1.12448,-2.31821 0.46952,-1.14382 0.5276,-1.34633 0.4594,-1.58647 -0.14927,-0.52562 -0.0461,-0.50175 -2.37401,-0.54725 -0.59779,-0.0117 -1.07336,-0.0171 -1.46916,-0.0114 z m -54.16827,3.64422 c 2.16095,-0.0206 4.03227,1.40733 4.76508,3.68608 1.17169,3.64353 -0.45834,7.15644 -3.70623,7.98711 -0.75873,0.19403 -1.80853,0.20668 -2.46549,0.03 -1.73087,-0.46554 -3.10537,-1.98869 -3.66024,-4.05712 -0.25434,-0.94813 -0.31426,-2.60254 -0.12506,-3.45302 0.50931,-2.28927 2.3878,-3.93593 4.75579,-4.16926 0.14638,-0.0144 0.29208,-0.0224 0.43615,-0.0238 z m -51.80718,0.16123 c 0.89019,0.011 1.77292,0.17631 2.55747,0.49558 2.32231,0.94507 3.90179,3.01286 4.3527,5.69784 l 0.0532,0.31781 -5.44359,-0.0191 c -2.99402,-0.0106 -6.17706,-0.0307 -7.07347,-0.0444 -1.87652,-0.0287 -1.72755,0.0689 -1.49397,-0.97823 0.16902,-0.75766 0.67193,-1.85426 1.17151,-2.55437 0.72895,-1.02155 2.07661,-2.04383 3.27266,-2.48305 0.81561,-0.29953 1.71327,-0.443 2.60346,-0.43202 z m 77.8552,0.0946 c 0.18507,-0.003 0.37153,8.8e-4 0.55914,0.0114 3.58593,0.20051 6.18897,2.54003 6.56962,5.90455 h -5.1e-4 l 0.0568,0.50074 h -7.03833 -7.03833 l 0.001,-0.27543 c 9.4e-4,-0.43496 0.31105,-1.61687 0.58033,-2.21072 1.07812,-2.37777 3.53409,-3.88919 6.31021,-3.93051 z"
         sodipodi:nodetypes="sscsccscsscsssscscssccsssssscccccscccssscssscccscccccccccccsssssssscssssssssccccccsssssssssssssscccsccccsscccccsccccccccssccccsssscscsscccccccccsccssscsscccccsssssssssscssscccssscscccscssssssssssscsccccscccccsssssscccscccccscscssccssscsssssscssccccsssssscccccccs" /><path
         style="fill:#a02421;fill-opacity:1;stroke-width:0.0846667"
         d="m 18.94494,165.98685 c -1.763165,-0.503 -3.116248,-1.99981 -3.730803,-4.12709 -0.260348,-0.90119 -0.318862,-2.53976 -0.122332,-3.4257 0.490927,-2.21305 1.782579,-3.67131 3.826887,-4.3205 1.889004,-0.59987 3.510619,-0.20631 4.900853,1.18943 0.577984,0.58027 0.750332,0.82367 1.115472,1.57531 0.614512,1.26498 0.737659,1.8149 0.739447,3.302 0.0015,1.27677 -0.07196,1.68698 -0.477801,2.667 -0.610626,1.47452 -2.147238,2.74056 -3.79639,3.12791 -0.662334,0.15556 -1.929771,0.16157 -2.455333,0.0116 z"
         id="path194"
         sodipodi:nodetypes="cssssscsscc" /></g></g></svg>
